<svg width="130" height="59" viewBox="0 0 130 59" fill="none" xmlns="http://www.w3.org/2000/svg">
<path d="M30 0.314675L36.6406 20.1278L36.6635 20.196H36.7354H58.2161L40.8406 32.4342L40.7796 32.4771L40.8033 32.5477L47.4418 52.3546L30.0576 40.1102L30 40.0696L29.9424 40.1102L12.5582 52.3546L19.1967 32.5477L19.2204 32.4771L19.1594 32.4342L1.78394 20.196H23.2646H23.3365L23.3594 20.1278L30 0.314675Z" fill="#FFB81A" stroke="black" stroke-width="0.2"/>
<path d="M99.9683 0.314675L106.609 20.1278L106.632 20.196H106.704H128.184L110.809 32.4342L110.748 32.4771L110.772 32.5477L117.41 52.3546L100.026 40.1102L99.9683 40.0696L99.9107 40.1102L82.5264 52.3546L89.1649 32.5477L89.1886 32.4771L89.1277 32.4342L71.7522 20.196H93.2328H93.3048L93.3277 20.1278L99.9683 0.314675Z" fill="#FFB81A" stroke="black" stroke-width="0.2"/>
</svg>
