<svg width="340" height="59" viewBox="0 0 340 59" fill="none" xmlns="http://www.w3.org/2000/svg">
<path d="M30 0.999245L36.6406 20.8123L36.6635 20.8805H36.7354H58.2161L40.8406 33.1188L40.7796 33.1617L40.8033 33.2323L47.4418 53.0392L30.0576 40.7948L30 40.7542L29.9424 40.7948L12.5582 53.0392L19.1967 33.2323L19.2204 33.1617L19.1594 33.1188L1.78394 20.8805H23.2646H23.3365L23.3594 20.8123L30 0.999245Z" fill="#FFB81A" stroke="black" stroke-width="0.2"/>
<path d="M99.9683 0.999245L106.609 20.8123L106.632 20.8805H106.704H128.184L110.809 33.1188L110.748 33.1617L110.772 33.2323L117.41 53.0392L100.026 40.7948L99.9683 40.7542L99.9107 40.7948L82.5264 53.0392L89.1649 33.2323L89.1886 33.1617L89.1277 33.1188L71.7522 20.8805H93.2328H93.3048L93.3277 20.8123L99.9683 0.999245Z" fill="#FFB81A" stroke="black" stroke-width="0.2"/>
<path d="M169.968 0.998439L176.609 20.7549L176.632 20.8231H176.704L198.184 20.8231L180.809 33.0257L180.748 33.0686L180.772 33.1394L187.41 52.8891L170.026 40.6798L169.968 40.6394L169.911 40.6798L152.527 52.8891L159.165 33.1394L159.189 33.0686L159.128 33.0257L141.753 20.8231L163.233 20.8231H163.305L163.328 20.7549L169.968 0.998439Z" fill="#FFB81A" stroke="black" stroke-width="0.2"/>
<path d="M239.968 0.999245L246.609 20.8123L246.632 20.8805H246.704H268.184L250.809 33.1188L250.748 33.1617L250.772 33.2323L257.41 53.0392L240.026 40.7948L239.968 40.7542L239.911 40.7948L222.526 53.0392L229.165 33.2323L229.189 33.1617L229.128 33.1188L211.752 20.8805H233.233H233.305L233.328 20.8123L239.968 0.999245Z" fill="#FFB81A" stroke="black" stroke-width="0.2"/>
<path d="M309.968 0.999245L316.609 20.8123L316.632 20.8805H316.704H338.184L320.809 33.1188L320.748 33.1617L320.772 33.2323L327.41 53.0392L310.026 40.7948L309.968 40.7542L309.911 40.7948L292.526 53.0392L299.165 33.2323L299.189 33.1617L299.128 33.1188L281.752 20.8805H303.233H303.305L303.328 20.8123L309.968 0.999245Z" fill="#FFB81A" stroke="black" stroke-width="0.2"/>
</svg>
