<svg width="46" height="46" viewBox="0 0 46 46" fill="none" xmlns="http://www.w3.org/2000/svg">
<circle cx="23" cy="23" r="22.5" stroke="#2692EC"/>
<rect x="12.0786" y="12.0781" width="21.8429" height="21.8429" rx="1.75" stroke="#2692EC" stroke-width="0.5"/>
<path d="M19.7666 19.6035H20.2666V19.1035H19.7666V19.6035ZM19.7666 27V27.5H20.2666V27H19.7666ZM18.4951 27H17.9951V27.5H18.4951V27ZM18.4951 19.6035V19.1035H17.9951V19.6035H18.4951ZM18.584 17.1221L18.2129 16.7869L18.2069 16.7937L18.584 17.1221ZM19.6982 17.1221L19.3271 17.4573L19.3331 17.4636L19.6982 17.1221ZM19.6982 18.1475L19.3331 17.8059L19.3327 17.8063L19.6982 18.1475ZM18.584 18.1475L18.2069 18.4759L18.2126 18.4823L18.2185 18.4886L18.584 18.1475ZM19.2666 19.6035V27H20.2666V19.6035H19.2666ZM19.7666 26.5H18.4951V27.5H19.7666V26.5ZM18.9951 27V19.6035H17.9951V27H18.9951ZM18.4951 20.1035H19.7666V19.1035H18.4951V20.1035ZM18.8994 17.6416C18.8994 17.5449 18.925 17.4918 18.961 17.4505L18.2069 16.7937C17.9969 17.0349 17.8994 17.3281 17.8994 17.6416H18.8994ZM18.955 17.4572C18.9619 17.4496 18.9959 17.4102 19.1445 17.4102V16.4102C18.801 16.4102 18.4613 16.512 18.2129 16.7869L18.955 17.4572ZM19.1445 17.4102C19.2852 17.4102 19.3186 17.4477 19.3272 17.4572L20.0693 16.7869C19.8227 16.5139 19.4869 16.4102 19.1445 16.4102V17.4102ZM19.3331 17.4636C19.3731 17.5064 19.3965 17.555 19.3965 17.6416H20.3965C20.3965 17.3181 20.2877 17.0203 20.0634 16.7805L19.3331 17.4636ZM19.3965 17.6416C19.3965 17.7125 19.3774 17.7586 19.3331 17.8059L20.0634 18.489C20.2834 18.2538 20.3965 17.9626 20.3965 17.6416H19.3965ZM19.3327 17.8063C19.3253 17.8142 19.2902 17.8525 19.1445 17.8525V18.8525C19.482 18.8525 19.816 18.7541 20.0638 18.4886L19.3327 17.8063ZM19.1445 17.8525C18.9911 17.8525 18.9552 17.8124 18.9495 17.8063L18.2185 18.4886C18.468 18.756 18.8058 18.8525 19.1445 18.8525V17.8525ZM18.961 17.8191C18.9212 17.7733 18.8994 17.7229 18.8994 17.6416H17.8994C17.8994 17.9522 18.0007 18.2391 18.2069 18.4759L18.961 17.8191ZM23.0615 21.1826H23.5615V21.1718L23.5611 21.161L23.0615 21.1826ZM23.0615 27V27.5H23.5615V27H23.0615ZM21.7969 27H21.2969V27.5H21.7969V27ZM21.7969 19.6035V19.1035H21.2969V19.6035H21.7969ZM22.9932 19.6035L23.4927 19.5819L23.472 19.1035H22.9932V19.6035ZM22.7607 23.0215L22.7413 23.5211L23.2607 23.5413V23.0215H22.7607ZM22.2344 23.001L21.7344 22.9965L21.73 23.4817L22.2149 23.5006L22.2344 23.001ZM22.46 21.5996L22.9333 21.7607L22.9338 21.7592L22.46 21.5996ZM23.0752 20.4717L22.6902 20.1527L23.0752 20.4717ZM24.0186 19.7334L24.2331 20.185L24.2355 20.1839L24.0186 19.7334ZM26.2266 19.6172L26.064 20.0901L26.0707 20.0923L26.2266 19.6172ZM26.9717 20.082L26.6105 20.4278L26.6143 20.4318L26.9717 20.082ZM27.4502 20.916L26.974 21.0684L26.9746 21.0703L27.4502 20.916ZM27.6143 27V27.5H28.1143V27H27.6143ZM26.3428 27H25.8428V27.5H26.3428V27ZM26.1719 21.21L25.7212 21.4266L25.7229 21.43L26.1719 21.21ZM25.6729 20.6973L25.4492 21.1445L25.4568 21.1482L25.6729 20.6973ZM24.0049 20.7314L23.7781 20.2858L23.775 20.2874L24.0049 20.7314ZM23.3418 21.2783L22.9521 20.965L22.9484 20.9698L23.3418 21.2783ZM22.9111 22.0781L22.439 21.9136L22.4375 21.9178L22.9111 22.0781ZM22.5615 21.1826V27H23.5615V21.1826H22.5615ZM23.0615 26.5H21.7969V27.5H23.0615V26.5ZM22.2969 27V19.6035H21.2969V27H22.2969ZM21.7969 20.1035H22.9932V19.1035H21.7969V20.1035ZM22.4936 19.6251L22.562 21.2042L23.5611 21.161L23.4927 19.5819L22.4936 19.6251ZM22.7802 22.5219L22.2538 22.5014L22.2149 23.5006L22.7413 23.5211L22.7802 22.5219ZM22.7344 23.0055C22.7385 22.5467 22.8065 22.1331 22.9333 21.7607L21.9866 21.4385C21.8217 21.9229 21.7394 22.4435 21.7344 22.9965L22.7344 23.0055ZM22.9338 21.7592C23.0621 21.3784 23.2388 21.0578 23.4602 20.7907L22.6902 20.1527C22.3829 20.5235 22.1495 20.9549 21.9861 21.44L22.9338 21.7592ZM23.4602 20.7907C23.6793 20.5263 23.9361 20.3261 24.2331 20.185L23.804 19.2818C23.3719 19.487 22.9997 19.7791 22.6902 20.1527L23.4602 20.7907ZM24.2355 20.1839C24.531 20.0416 24.8638 19.9668 25.2422 19.9668V18.9668C24.7273 18.9668 24.2444 19.0697 23.8016 19.2829L24.2355 20.1839ZM25.2422 19.9668C25.5613 19.9668 25.8332 20.0107 26.064 20.09L26.3891 19.1443C26.0366 19.0232 25.6523 18.9668 25.2422 18.9668V19.9668ZM26.0707 20.0923C26.2872 20.1633 26.4643 20.275 26.6105 20.4278L27.3328 19.7362C27.0689 19.4606 26.7493 19.2625 26.3824 19.1421L26.0707 20.0923ZM26.6143 20.4318C26.7598 20.5804 26.8837 20.7862 26.974 21.0684L27.9264 20.7636C27.7979 20.3622 27.6028 20.0121 27.329 19.7323L26.6143 20.4318ZM26.9746 21.0703C27.063 21.3429 27.1143 21.6999 27.1143 22.1533H28.1143C28.1143 21.6315 28.0561 21.1636 27.9258 20.7618L26.9746 21.0703ZM27.1143 22.1533V27H28.1143V22.1533H27.1143ZM27.6143 26.5H26.3428V27.5H27.6143V26.5ZM26.8428 27V22.1396H25.8428V27H26.8428ZM26.8428 22.1396C26.8428 21.7107 26.7808 21.3163 26.6208 20.9899L25.7229 21.43C25.7908 21.5685 25.8428 21.7939 25.8428 22.1396H26.8428ZM26.6225 20.9933C26.4637 20.663 26.2191 20.4046 25.8889 20.2464L25.4568 21.1482C25.5641 21.1996 25.6522 21.2829 25.7212 21.4266L26.6225 20.9933ZM25.8965 20.2501C25.5904 20.097 25.2401 20.0332 24.8662 20.0332V21.0332C25.1304 21.0332 25.3178 21.0787 25.4492 21.1445L25.8965 20.2501ZM24.8662 20.0332C24.4793 20.0332 24.1136 20.1151 23.7782 20.2858L24.2316 21.1771C24.4157 21.0834 24.6242 21.0332 24.8662 21.0332V20.0332ZM23.775 20.2874C23.4556 20.4528 23.1809 20.6805 22.9521 20.965L23.7315 21.5916C23.8764 21.4113 24.0437 21.2744 24.2348 21.1754L23.775 20.2874ZM22.9484 20.9698C22.7295 21.2488 22.5605 21.5649 22.439 21.9136L23.3833 22.2427C23.4714 21.9898 23.5895 21.7727 23.7352 21.5869L22.9484 20.9698ZM22.4375 21.9178C22.3187 22.2689 22.2607 22.6378 22.2607 23.0215H23.2607C23.2607 22.7398 23.303 22.4798 23.3847 22.2384L22.4375 21.9178Z" fill="#2692EC"/>
</svg>
