<svg width="155" height="42" viewBox="0 0 155 42" fill="none" xmlns="http://www.w3.org/2000/svg">
<g filter="url(#filter0_d_603_1048)">
<path d="M23.9746 15.4336L21.3203 21.4922C21.082 22.0391 20.8281 22.5098 20.5586 22.9043C20.2891 23.2949 19.9473 23.5957 19.5332 23.8066C19.1191 24.0137 18.5762 24.1172 17.9043 24.1172C17.6934 24.1172 17.4648 24.1016 17.2188 24.0703C16.9727 24.043 16.7441 24 16.5332 23.9414V22.3828C16.7285 22.457 16.9395 22.5117 17.166 22.5469C17.3965 22.5781 17.6133 22.5938 17.8164 22.5938C18.082 22.5938 18.2969 22.5488 18.4609 22.459C18.625 22.3691 18.7559 22.248 18.8535 22.0957C18.9512 21.9434 19.0332 21.7734 19.0996 21.5859L16.1348 15.4336H18.0566L19.6562 19.1426C19.6914 19.2207 19.7363 19.3262 19.791 19.459C19.8496 19.5879 19.9062 19.7207 19.9609 19.8574C20.0195 19.9902 20.0645 20.1074 20.0957 20.209H20.1602C20.1914 20.1113 20.2324 19.9941 20.2832 19.8574C20.3379 19.7168 20.3945 19.5742 20.4531 19.4297C20.5117 19.2812 20.5645 19.1484 20.6113 19.0312L22.0996 15.4336H23.9746ZM26.4824 17.4492V19.8457C26.4824 20.1309 26.5508 20.3457 26.6875 20.4902C26.8281 20.6309 27.0234 20.7012 27.2734 20.7012C27.6172 20.7012 27.9355 20.6621 28.2285 20.584C28.5254 20.5059 28.8242 20.4043 29.125 20.2793V17.4492H30.9121V24H29.125V21.3984C28.8398 21.5469 28.5176 21.6836 28.1582 21.8086C27.8027 21.9336 27.3965 21.9961 26.9395 21.9961C26.2559 21.9961 25.7109 21.8223 25.3047 21.4746C24.8984 21.123 24.6953 20.5938 24.6953 19.8867V17.4492H26.4824ZM35.4707 17.3145C36.3496 17.3145 37.0234 17.5059 37.4922 17.8887C37.9609 18.2715 38.1953 18.8535 38.1953 19.6348V24H36.9473L36.6016 23.1094H36.5547C36.3672 23.3438 36.1758 23.5352 35.9805 23.6836C35.7852 23.832 35.5605 23.9414 35.3066 24.0117C35.0527 24.082 34.7441 24.1172 34.3809 24.1172C33.9941 24.1172 33.6465 24.043 33.3379 23.8945C33.0332 23.7461 32.793 23.5195 32.6172 23.2148C32.4414 22.9062 32.3535 22.5156 32.3535 22.043C32.3535 21.3477 32.5977 20.8359 33.0859 20.5078C33.5742 20.1758 34.3066 19.9922 35.2832 19.957L36.4199 19.9219V19.6348C36.4199 19.291 36.3301 19.0391 36.1504 18.8789C35.9707 18.7188 35.7207 18.6387 35.4004 18.6387C35.084 18.6387 34.7734 18.6836 34.4688 18.7734C34.1641 18.8633 33.8594 18.9766 33.5547 19.1133L32.9629 17.9062C33.3105 17.7227 33.6992 17.5781 34.1289 17.4727C34.5625 17.3672 35.0098 17.3145 35.4707 17.3145ZM36.4199 20.9648L35.7285 20.9883C35.1504 21.0039 34.748 21.1074 34.5215 21.2988C34.2988 21.4902 34.1875 21.7422 34.1875 22.0547C34.1875 22.3281 34.2676 22.5234 34.4277 22.6406C34.5879 22.7539 34.7969 22.8105 35.0547 22.8105C35.4375 22.8105 35.7598 22.6973 36.0215 22.4707C36.2871 22.2441 36.4199 21.9219 36.4199 21.5039V20.9648ZM42.7012 24.1172C42.0527 24.1172 41.5 24 41.043 23.7656C40.5859 23.5273 40.2383 23.1602 40 22.6641C39.7617 22.168 39.6426 21.5332 39.6426 20.7598C39.6426 19.959 39.7773 19.3066 40.0469 18.8027C40.3203 18.2949 40.6973 17.9219 41.1777 17.6836C41.6621 17.4453 42.2227 17.3262 42.8594 17.3262C43.3125 17.3262 43.7031 17.3711 44.0312 17.4609C44.3633 17.5469 44.6523 17.6504 44.8984 17.7715L44.3711 19.1543C44.0898 19.041 43.8281 18.9492 43.5859 18.8789C43.3438 18.8047 43.1016 18.7676 42.8594 18.7676C42.5469 18.7676 42.2871 18.8418 42.0801 18.9902C41.873 19.1348 41.7188 19.3535 41.6172 19.6465C41.5156 19.9395 41.4648 20.3066 41.4648 20.748C41.4648 21.1816 41.5195 21.541 41.6289 21.8262C41.7383 22.1113 41.8965 22.3242 42.1035 22.4648C42.3105 22.6016 42.5625 22.6699 42.8594 22.6699C43.2305 22.6699 43.5605 22.6211 43.8496 22.5234C44.1387 22.4219 44.4199 22.2812 44.6934 22.1016V23.6309C44.4199 23.8027 44.1328 23.9258 43.832 24C43.5352 24.0781 43.1582 24.1172 42.7012 24.1172ZM51.6367 18.791H49.4922V24H47.7051V18.791H45.5547V17.4492H51.6367V18.791ZM54.6484 17.4492V19.9688H57.1445V17.4492H58.9316V24H57.1445V21.2988H54.6484V24H52.8613V17.4492H54.6484ZM62.5352 17.4492V20.0391C62.5352 20.1719 62.5293 20.3398 62.5176 20.543C62.5098 20.7422 62.498 20.9453 62.4824 21.1523C62.4668 21.3594 62.4512 21.5449 62.4355 21.709C62.4199 21.873 62.4082 21.9844 62.4004 22.043L65.4238 17.4492H67.5742V24H65.8457V21.3867C65.8457 21.1719 65.8535 20.9355 65.8691 20.6777C65.8848 20.416 65.9023 20.1699 65.9219 19.9395C65.9414 19.709 65.9551 19.5352 65.9629 19.418L62.9512 24H60.8066V17.4492H62.5352ZM73.75 17.4492H75.7188L73.123 20.5898L75.9473 24H73.9199L71.2422 20.6777V24H69.4551V17.4492H71.2422V20.6309L73.75 17.4492ZM78.6133 17.4492V20.0391C78.6133 20.1719 78.6074 20.3398 78.5957 20.543C78.5879 20.7422 78.5762 20.9453 78.5605 21.1523C78.5449 21.3594 78.5293 21.5449 78.5137 21.709C78.498 21.873 78.4863 21.9844 78.4785 22.043L81.502 17.4492H83.6523V24H81.9238V21.3867C81.9238 21.1719 81.9316 20.9355 81.9473 20.6777C81.9629 20.416 81.9805 20.1699 82 19.9395C82.0195 19.709 82.0332 19.5352 82.041 19.418L79.0293 24H76.8848V17.4492H78.6133ZM94.6035 17.4492V24H92.8105V18.791H90.4375V24H88.6504V17.4492H94.6035ZM100.123 17.3262C100.861 17.3262 101.457 17.6133 101.91 18.1875C102.367 18.7617 102.596 19.6035 102.596 20.7129C102.596 21.4551 102.488 22.0801 102.273 22.5879C102.059 23.0918 101.762 23.4727 101.383 23.7305C101.004 23.9883 100.568 24.1172 100.076 24.1172C99.7598 24.1172 99.4883 24.0781 99.2617 24C99.0352 23.918 98.8418 23.8145 98.6816 23.6895C98.5215 23.5605 98.3828 23.4238 98.2656 23.2793H98.1719C98.2031 23.4355 98.2266 23.5957 98.2422 23.7598C98.2578 23.9238 98.2656 24.084 98.2656 24.2402V26.8828H96.4785V17.4492H97.9316L98.1836 18.2988H98.2656C98.3828 18.123 98.5254 17.9609 98.6934 17.8125C98.8613 17.6641 99.0625 17.5469 99.2969 17.4609C99.5352 17.3711 99.8105 17.3262 100.123 17.3262ZM99.5488 18.7559C99.2363 18.7559 98.9883 18.8203 98.8047 18.9492C98.6211 19.0781 98.4863 19.2715 98.4004 19.5293C98.3184 19.7871 98.2734 20.1133 98.2656 20.5078V20.7012C98.2656 21.123 98.3047 21.4805 98.3828 21.7734C98.4648 22.0664 98.5996 22.2891 98.7871 22.4414C98.9785 22.5938 99.2402 22.6699 99.5723 22.6699C99.8457 22.6699 100.07 22.5938 100.246 22.4414C100.422 22.2891 100.553 22.0664 100.639 21.7734C100.729 21.4766 100.773 21.1152 100.773 20.6895C100.773 20.0488 100.674 19.5664 100.475 19.2422C100.275 18.918 99.9668 18.7559 99.5488 18.7559ZM110.025 20.7129C110.025 21.2598 109.951 21.7441 109.803 22.166C109.658 22.5879 109.445 22.9453 109.164 23.2383C108.887 23.5273 108.551 23.7461 108.156 23.8945C107.766 24.043 107.324 24.1172 106.832 24.1172C106.371 24.1172 105.947 24.043 105.561 23.8945C105.178 23.7461 104.844 23.5273 104.559 23.2383C104.277 22.9453 104.059 22.5879 103.902 22.166C103.75 21.7441 103.674 21.2598 103.674 20.7129C103.674 19.9863 103.803 19.3711 104.061 18.8672C104.318 18.3633 104.686 17.9805 105.162 17.7188C105.639 17.457 106.207 17.3262 106.867 17.3262C107.48 17.3262 108.023 17.457 108.496 17.7188C108.973 17.9805 109.346 18.3633 109.615 18.8672C109.889 19.3711 110.025 19.9863 110.025 20.7129ZM105.496 20.7129C105.496 21.1426 105.543 21.5039 105.637 21.7969C105.73 22.0898 105.877 22.3105 106.076 22.459C106.275 22.6074 106.535 22.6816 106.855 22.6816C107.172 22.6816 107.428 22.6074 107.623 22.459C107.822 22.3105 107.967 22.0898 108.057 21.7969C108.15 21.5039 108.197 21.1426 108.197 20.7129C108.197 20.2793 108.15 19.9199 108.057 19.6348C107.967 19.3457 107.822 19.1289 107.623 18.9844C107.424 18.8398 107.164 18.7676 106.844 18.7676C106.371 18.7676 106.027 18.9297 105.812 19.2539C105.602 19.5781 105.496 20.0645 105.496 20.7129ZM114.203 17.3262C114.809 17.3262 115.33 17.4434 115.768 17.6777C116.205 17.9082 116.543 18.2441 116.781 18.6855C117.02 19.127 117.139 19.666 117.139 20.3027V21.1699H112.914C112.934 21.6738 113.084 22.0703 113.365 22.3594C113.65 22.6445 114.045 22.7871 114.549 22.7871C114.967 22.7871 115.35 22.7441 115.697 22.6582C116.045 22.5723 116.402 22.4434 116.77 22.2715V23.6543C116.445 23.8145 116.105 23.9316 115.75 24.0059C115.398 24.0801 114.971 24.1172 114.467 24.1172C113.811 24.1172 113.229 23.9961 112.721 23.7539C112.217 23.5117 111.82 23.1426 111.531 22.6465C111.246 22.1504 111.104 21.5254 111.104 20.7715C111.104 20.0059 111.232 19.3691 111.49 18.8613C111.752 18.3496 112.115 17.9668 112.58 17.7129C113.045 17.4551 113.586 17.3262 114.203 17.3262ZM114.215 18.5977C113.867 18.5977 113.578 18.709 113.348 18.9316C113.121 19.1543 112.99 19.5039 112.955 19.9805H115.463C115.459 19.7148 115.41 19.4785 115.316 19.2715C115.227 19.0645 115.09 18.9004 114.906 18.7793C114.727 18.6582 114.496 18.5977 114.215 18.5977ZM122.887 17.4492H124.855L122.26 20.5898L125.084 24H123.057L120.379 20.6777V24H118.592V17.4492H120.379V20.6309L122.887 17.4492ZM131.441 18.791H129.297V24H127.51V18.791H125.359V17.4492H131.441V18.791ZM135.35 17.3145C136.229 17.3145 136.902 17.5059 137.371 17.8887C137.84 18.2715 138.074 18.8535 138.074 19.6348V24H136.826L136.48 23.1094H136.434C136.246 23.3438 136.055 23.5352 135.859 23.6836C135.664 23.832 135.439 23.9414 135.186 24.0117C134.932 24.082 134.623 24.1172 134.26 24.1172C133.873 24.1172 133.525 24.043 133.217 23.8945C132.912 23.7461 132.672 23.5195 132.496 23.2148C132.32 22.9062 132.232 22.5156 132.232 22.043C132.232 21.3477 132.477 20.8359 132.965 20.5078C133.453 20.1758 134.186 19.9922 135.162 19.957L136.299 19.9219V19.6348C136.299 19.291 136.209 19.0391 136.029 18.8789C135.85 18.7188 135.6 18.6387 135.279 18.6387C134.963 18.6387 134.652 18.6836 134.348 18.7734C134.043 18.8633 133.738 18.9766 133.434 19.1133L132.842 17.9062C133.189 17.7227 133.578 17.5781 134.008 17.4727C134.441 17.3672 134.889 17.3145 135.35 17.3145ZM136.299 20.9648L135.607 20.9883C135.029 21.0039 134.627 21.1074 134.4 21.2988C134.178 21.4902 134.066 21.7422 134.066 22.0547C134.066 22.3281 134.146 22.5234 134.307 22.6406C134.467 22.7539 134.676 22.8105 134.934 22.8105C135.316 22.8105 135.639 22.6973 135.9 22.4707C136.166 22.2441 136.299 21.9219 136.299 21.5039V20.9648Z" fill="white"/>
</g>
<g filter="url(#filter1_d_603_1048)">
<line x1="15" y1="26.2427" x2="140" y2="26.2427" stroke="white" stroke-width="0.5"/>
</g>
<defs>
<filter id="filter0_d_603_1048" x="1.13477" y="0.433594" width="151.939" height="41.4492" filterUnits="userSpaceOnUse" color-interpolation-filters="sRGB">
<feFlood flood-opacity="0" result="BackgroundImageFix"/>
<feColorMatrix in="SourceAlpha" type="matrix" values="0 0 0 0 0 0 0 0 0 0 0 0 0 0 0 0 0 0 127 0" result="hardAlpha"/>
<feOffset/>
<feGaussianBlur stdDeviation="7.5"/>
<feComposite in2="hardAlpha" operator="out"/>
<feColorMatrix type="matrix" values="0 0 0 0 1 0 0 0 0 1 0 0 0 0 1 0 0 0 1 0"/>
<feBlend mode="normal" in2="BackgroundImageFix" result="effect1_dropShadow_603_1048"/>
<feBlend mode="normal" in="SourceGraphic" in2="effect1_dropShadow_603_1048" result="shape"/>
</filter>
<filter id="filter1_d_603_1048" x="0" y="10.9927" width="155" height="30.5" filterUnits="userSpaceOnUse" color-interpolation-filters="sRGB">
<feFlood flood-opacity="0" result="BackgroundImageFix"/>
<feColorMatrix in="SourceAlpha" type="matrix" values="0 0 0 0 0 0 0 0 0 0 0 0 0 0 0 0 0 0 127 0" result="hardAlpha"/>
<feOffset/>
<feGaussianBlur stdDeviation="7.5"/>
<feComposite in2="hardAlpha" operator="out"/>
<feColorMatrix type="matrix" values="0 0 0 0 1 0 0 0 0 1 0 0 0 0 1 0 0 0 1 0"/>
<feBlend mode="normal" in2="BackgroundImageFix" result="effect1_dropShadow_603_1048"/>
<feBlend mode="normal" in="SourceGraphic" in2="effect1_dropShadow_603_1048" result="shape"/>
</filter>
</defs>
</svg>
