<svg width="249" height="63" viewBox="0 0 249 63" fill="none" xmlns="http://www.w3.org/2000/svg">
<g filter="url(#filter0_d_948_1620)">
<path d="M33.1094 40H29.375V29.6875H18.8438V40H15.0938V17.1562H18.8438V26.5H29.375V17.1562H33.1094V40ZM45.5625 22.375C47.75 22.375 49.401 22.8594 50.5156 23.8281C51.6406 24.7969 52.2031 26.3073 52.2031 28.3594V40H49.5938L48.8906 37.5469H48.7656C48.276 38.1719 47.7708 38.6875 47.25 39.0938C46.7292 39.5 46.125 39.8021 45.4375 40C44.7604 40.2083 43.9323 40.3125 42.9531 40.3125C41.9219 40.3125 41 40.125 40.1875 39.75C39.375 39.3646 38.7344 38.7812 38.2656 38C37.7969 37.2188 37.5625 36.2292 37.5625 35.0312C37.5625 33.25 38.224 31.9115 39.5469 31.0156C40.8802 30.1198 42.8906 29.625 45.5781 29.5312L48.5781 29.4219V28.5156C48.5781 27.3177 48.2969 26.4635 47.7344 25.9531C47.1823 25.4427 46.401 25.1875 45.3906 25.1875C44.526 25.1875 43.6875 25.3125 42.875 25.5625C42.0625 25.8125 41.2708 26.1198 40.5 26.4844L39.3125 23.8906C40.1562 23.4427 41.1146 23.0781 42.1875 22.7969C43.2708 22.5156 44.3958 22.375 45.5625 22.375ZM48.5625 31.7344L46.3281 31.8125C44.4948 31.875 43.2083 32.1875 42.4688 32.75C41.7292 33.3125 41.3594 34.0833 41.3594 35.0625C41.3594 35.9167 41.6146 36.5417 42.125 36.9375C42.6354 37.3229 43.3073 37.5156 44.1406 37.5156C45.4115 37.5156 46.4635 37.1562 47.2969 36.4375C48.1406 35.7083 48.5625 34.6406 48.5625 33.2344V31.7344ZM60.875 22.7031V31.5312C60.875 31.8125 60.8646 32.1719 60.8438 32.6094C60.8333 33.0365 60.8125 33.4844 60.7812 33.9531C60.75 34.4115 60.7188 34.8333 60.6875 35.2188C60.6562 35.6042 60.6302 35.8906 60.6094 36.0781L69.3125 22.7031H73.7812V40H70.2656V31.2656C70.2656 30.8073 70.276 30.276 70.2969 29.6719C70.3281 29.0677 70.3594 28.4844 70.3906 27.9219C70.4323 27.3594 70.4583 26.9323 70.4688 26.6406L61.7969 40H57.3438V22.7031H60.875ZM72.4844 15.4219C72.3802 16.4948 72.0885 17.4219 71.6094 18.2031C71.1406 18.974 70.4271 19.5677 69.4688 19.9844C68.5104 20.401 67.25 20.6094 65.6875 20.6094C64.0729 20.6094 62.7969 20.4115 61.8594 20.0156C60.9219 19.6094 60.2448 19.0208 59.8281 18.25C59.4115 17.4688 59.1615 16.526 59.0781 15.4219H62.4219C62.526 16.5781 62.8281 17.3594 63.3281 17.7656C63.8281 18.1615 64.6354 18.3594 65.75 18.3594C66.7083 18.3594 67.474 18.1458 68.0469 17.7188C68.6302 17.2917 68.9792 16.526 69.0938 15.4219H72.4844ZM92.125 25.5938H86.4375V40H82.7812V25.5938H77.125V22.7031H92.125V25.5938ZM99 22.7031V31.5312C99 31.8125 98.9896 32.1719 98.9688 32.6094C98.9583 33.0365 98.9375 33.4844 98.9062 33.9531C98.875 34.4115 98.8438 34.8333 98.8125 35.2188C98.7812 35.6042 98.7552 35.8906 98.7344 36.0781L107.438 22.7031H111.906V40H108.391V31.2656C108.391 30.8073 108.401 30.276 108.422 29.6719C108.453 29.0677 108.484 28.4844 108.516 27.9219C108.557 27.3594 108.583 26.9323 108.594 26.6406L99.9219 40H95.4688V22.7031H99ZM134.375 22.375C136.427 22.375 138.073 23.125 139.312 24.625C140.562 26.125 141.188 28.3542 141.188 31.3125C141.188 33.2708 140.896 34.9219 140.312 36.2656C139.74 37.599 138.932 38.6094 137.891 39.2969C136.859 39.974 135.656 40.3125 134.281 40.3125C133.406 40.3125 132.646 40.1979 132 39.9688C131.354 39.7396 130.802 39.4427 130.344 39.0781C129.885 38.7031 129.5 38.2969 129.188 37.8594H128.969C129.021 38.276 129.068 38.7396 129.109 39.25C129.161 39.75 129.188 40.2083 129.188 40.625V47.6719H125.5V22.7031H128.5L129.016 25.0938H129.188C129.51 24.6042 129.901 24.151 130.359 23.7344C130.828 23.3177 131.391 22.9896 132.047 22.75C132.714 22.5 133.49 22.375 134.375 22.375ZM133.391 25.375C132.38 25.375 131.568 25.5781 130.953 25.9844C130.349 26.3802 129.906 26.9792 129.625 27.7812C129.354 28.5833 129.208 29.5885 129.188 30.7969V31.3125C129.188 32.5938 129.318 33.6823 129.578 34.5781C129.849 35.4635 130.292 36.1406 130.906 36.6094C131.531 37.0677 132.375 37.2969 133.438 37.2969C134.333 37.2969 135.073 37.0521 135.656 36.5625C136.25 36.0729 136.693 35.375 136.984 34.4688C137.276 33.5625 137.422 32.4948 137.422 31.2656C137.422 29.401 137.089 27.9531 136.422 26.9219C135.766 25.8906 134.755 25.375 133.391 25.375ZM152.219 22.375C154.406 22.375 156.057 22.8594 157.172 23.8281C158.297 24.7969 158.859 26.3073 158.859 28.3594V40H156.25L155.547 37.5469H155.422C154.932 38.1719 154.427 38.6875 153.906 39.0938C153.385 39.5 152.781 39.8021 152.094 40C151.417 40.2083 150.589 40.3125 149.609 40.3125C148.578 40.3125 147.656 40.125 146.844 39.75C146.031 39.3646 145.391 38.7812 144.922 38C144.453 37.2188 144.219 36.2292 144.219 35.0312C144.219 33.25 144.88 31.9115 146.203 31.0156C147.536 30.1198 149.547 29.625 152.234 29.5312L155.234 29.4219V28.5156C155.234 27.3177 154.953 26.4635 154.391 25.9531C153.839 25.4427 153.057 25.1875 152.047 25.1875C151.182 25.1875 150.344 25.3125 149.531 25.5625C148.719 25.8125 147.927 26.1198 147.156 26.4844L145.969 23.8906C146.812 23.4427 147.771 23.0781 148.844 22.7969C149.927 22.5156 151.052 22.375 152.219 22.375ZM155.219 31.7344L152.984 31.8125C151.151 31.875 149.865 32.1875 149.125 32.75C148.385 33.3125 148.016 34.0833 148.016 35.0625C148.016 35.9167 148.271 36.5417 148.781 36.9375C149.292 37.3229 149.964 37.5156 150.797 37.5156C152.068 37.5156 153.12 37.1562 153.953 36.4375C154.797 35.7083 155.219 34.6406 155.219 33.2344V31.7344ZM163.016 29.625C163.016 27.1146 163.292 24.9792 163.844 23.2188C164.396 21.4583 165.266 20.0469 166.453 18.9844C167.641 17.9219 169.182 17.1979 171.078 16.8125C172.307 16.5312 173.557 16.2917 174.828 16.0938C176.099 15.8958 177.37 15.7031 178.641 15.5156L179.141 18.75C178.547 18.8229 177.911 18.9115 177.234 19.0156C176.557 19.1094 175.875 19.2083 175.188 19.3125C174.51 19.4167 173.859 19.526 173.234 19.6406C172.62 19.7448 172.068 19.849 171.578 19.9531C170.599 20.1615 169.771 20.5052 169.094 20.9844C168.427 21.4531 167.906 22.1406 167.531 23.0469C167.156 23.9531 166.932 25.1615 166.859 26.6719H167.062C167.344 26.2448 167.734 25.8177 168.234 25.3906C168.734 24.9635 169.339 24.6094 170.047 24.3281C170.766 24.0365 171.583 23.8906 172.5 23.8906C173.938 23.8906 175.156 24.1927 176.156 24.7969C177.167 25.401 177.932 26.276 178.453 27.4219C178.984 28.5677 179.25 29.9479 179.25 31.5625C179.25 33.4896 178.906 35.1042 178.219 36.4062C177.542 37.6979 176.594 38.6719 175.375 39.3281C174.156 39.9844 172.734 40.3125 171.109 40.3125C169.859 40.3125 168.734 40.0781 167.734 39.6094C166.745 39.1406 165.896 38.4531 165.188 37.5469C164.49 36.6302 163.953 35.5104 163.578 34.1875C163.203 32.8542 163.016 31.3333 163.016 29.625ZM171.359 37.2969C172.193 37.2969 172.911 37.1198 173.516 36.7656C174.13 36.4115 174.604 35.8385 174.938 35.0469C175.281 34.2552 175.453 33.2083 175.453 31.9062C175.453 30.3021 175.161 29.0417 174.578 28.125C174.005 27.1979 173.057 26.7344 171.734 26.7344C170.922 26.7344 170.177 26.9167 169.5 27.2812C168.823 27.6458 168.25 28.0729 167.781 28.5625C167.312 29.0417 166.979 29.4635 166.781 29.8281C166.781 30.776 166.849 31.6927 166.984 32.5781C167.13 33.4635 167.37 34.2656 167.703 34.9844C168.047 35.6927 168.516 36.2552 169.109 36.6719C169.703 37.0885 170.453 37.2969 171.359 37.2969ZM198.781 31.3125C198.781 32.75 198.594 34.026 198.219 35.1406C197.844 36.2552 197.297 37.1979 196.578 37.9688C195.859 38.7292 194.995 39.3125 193.984 39.7188C192.974 40.1146 191.833 40.3125 190.562 40.3125C189.375 40.3125 188.286 40.1146 187.297 39.7188C186.307 39.3125 185.448 38.7292 184.719 37.9688C184 37.1979 183.443 36.2552 183.047 35.1406C182.651 34.026 182.453 32.75 182.453 31.3125C182.453 29.4062 182.781 27.7917 183.438 26.4688C184.104 25.1354 185.052 24.1198 186.281 23.4219C187.51 22.724 188.974 22.375 190.672 22.375C192.266 22.375 193.672 22.724 194.891 23.4219C196.109 24.1198 197.062 25.1354 197.75 26.4688C198.438 27.8021 198.781 29.4167 198.781 31.3125ZM186.234 31.3125C186.234 32.5729 186.385 33.651 186.688 34.5469C187 35.4427 187.479 36.1302 188.125 36.6094C188.771 37.0781 189.604 37.3125 190.625 37.3125C191.646 37.3125 192.479 37.0781 193.125 36.6094C193.771 36.1302 194.245 35.4427 194.547 34.5469C194.849 33.651 195 32.5729 195 31.3125C195 30.0521 194.849 28.9844 194.547 28.1094C194.245 27.224 193.771 26.5521 193.125 26.0938C192.479 25.625 191.641 25.3906 190.609 25.3906C189.089 25.3906 187.979 25.901 187.281 26.9219C186.583 27.9427 186.234 29.4062 186.234 31.3125ZM216.062 25.5938H210.375V40H206.719V25.5938H201.062V22.7031H216.062V25.5938ZM216.797 22.7031H220.797L224.344 32.5781C224.5 33.026 224.641 33.4688 224.766 33.9062C224.901 34.3333 225.016 34.7552 225.109 35.1719C225.214 35.5885 225.297 36.0052 225.359 36.4219H225.453C225.557 35.8802 225.703 35.276 225.891 34.6094C226.089 33.9323 226.307 33.2552 226.547 32.5781L229.953 22.7031H233.906L226.484 42.375C226.057 43.5 225.531 44.4583 224.906 45.25C224.292 46.0521 223.562 46.6562 222.719 47.0625C221.875 47.4792 220.911 47.6875 219.828 47.6875C219.307 47.6875 218.854 47.6562 218.469 47.5938C218.083 47.5417 217.755 47.4844 217.484 47.4219V44.4844C217.703 44.5365 217.979 44.5833 218.312 44.625C218.646 44.6667 218.99 44.6875 219.344 44.6875C220 44.6875 220.568 44.5573 221.047 44.2969C221.526 44.0365 221.932 43.6667 222.266 43.1875C222.599 42.7188 222.875 42.1823 223.094 41.5781L223.703 39.9531L216.797 22.7031Z" fill="white"/>
<path d="M12.0938 41.9531H233.906V42.7344H12.0938V41.9531Z" fill="white"/>
</g>
<defs>
<filter id="filter0_d_948_1620" x="0.09375" y="0.421875" width="248.812" height="62.2656" filterUnits="userSpaceOnUse" color-interpolation-filters="sRGB">
<feFlood flood-opacity="0" result="BackgroundImageFix"/>
<feColorMatrix in="SourceAlpha" type="matrix" values="0 0 0 0 0 0 0 0 0 0 0 0 0 0 0 0 0 0 127 0" result="hardAlpha"/>
<feOffset/>
<feGaussianBlur stdDeviation="7.5"/>
<feComposite in2="hardAlpha" operator="out"/>
<feColorMatrix type="matrix" values="0 0 0 0 1 0 0 0 0 0.723494 0 0 0 0 0.1 0 0 0 1 0"/>
<feBlend mode="normal" in2="BackgroundImageFix" result="effect1_dropShadow_948_1620"/>
<feBlend mode="normal" in="SourceGraphic" in2="effect1_dropShadow_948_1620" result="shape"/>
</filter>
</defs>
</svg>
