<svg width="32" height="26" viewBox="0 0 32 26" fill="none" xmlns="http://www.w3.org/2000/svg">
<path d="M3.87109 13.457L1.81055 12.959L2.60156 5.78125H10.4238V7.91992H4.74023L4.36914 11.2402C4.57096 11.1165 4.86393 10.9928 5.24805 10.8691C5.63867 10.7389 6.07812 10.6738 6.56641 10.6738C7.24349 10.6738 7.84896 10.7845 8.38281 11.0059C8.91667 11.2207 9.36914 11.5332 9.74023 11.9434C10.1178 12.3535 10.401 12.8548 10.5898 13.4473C10.7852 14.0332 10.8828 14.6973 10.8828 15.4395C10.8828 16.0905 10.7852 16.7025 10.5898 17.2754C10.401 17.8418 10.1113 18.3464 9.7207 18.7891C9.33008 19.2253 8.83854 19.5703 8.24609 19.8242C7.65365 20.0716 6.95703 20.1953 6.15625 20.1953C5.55078 20.1953 4.9681 20.1074 4.4082 19.9316C3.85482 19.7493 3.35677 19.4857 2.91406 19.1406C2.47135 18.7891 2.11654 18.3594 1.84961 17.8516C1.58919 17.3438 1.44596 16.7611 1.41992 16.1035H3.96875C4.01432 16.5397 4.13151 16.9108 4.32031 17.2168C4.50911 17.5228 4.75651 17.7572 5.0625 17.9199C5.375 18.0827 5.73633 18.1641 6.14648 18.1641C6.51758 18.1641 6.83659 18.0957 7.10352 17.959C7.37695 17.8158 7.60156 17.6172 7.77734 17.3633C7.95312 17.1094 8.08333 16.8099 8.16797 16.4648C8.2526 16.1198 8.29492 15.7422 8.29492 15.332C8.29492 14.9349 8.24609 14.5736 8.14844 14.248C8.05078 13.916 7.90104 13.6296 7.69922 13.3887C7.4974 13.1478 7.24349 12.9622 6.9375 12.832C6.63802 12.7018 6.28646 12.6367 5.88281 12.6367C5.34245 12.6367 4.92578 12.7181 4.63281 12.8809C4.34635 13.0436 4.09245 13.2357 3.87109 13.457Z" fill="#FFB81A"/>
<path d="M22 3.32361L24.15 9.94073L24.1725 10.0098H24.2451H31.2028L25.5739 14.0994L25.5152 14.1421L25.5376 14.2112L27.6876 20.8284L22.0588 16.7388L22 16.6961L21.9412 16.7388L16.3124 20.8284L18.4624 14.2112L18.4848 14.1421L18.4261 14.0994L12.7972 10.0098H19.7549H19.8275L19.85 9.94073L22 3.32361Z" fill="#FFB81A" stroke="#2692EC" stroke-width="0.2"/>
</svg>
